<mxfile host="65bd71144e">
    <diagram id="8OXQW1eabKYas1Qtqasl" name="Page-1">
        <mxGraphModel dx="1170" dy="938" grid="1" gridSize="10" guides="1" tooltips="1" connect="1" arrows="1" fold="1" page="1" pageScale="1" pageWidth="850" pageHeight="1100" background="#FFFFFF" math="0" shadow="1">
            <root>
                <mxCell id="0"/>
                <mxCell id="1" parent="0"/>
                <mxCell id="2" value="Produtos" style="shape=table;startSize=40;container=1;collapsible=0;childLayout=tableLayout;shadow=0;rounded=0;swimlaneLine=1;swimlaneFillColor=none;fillColor=#66FFFF;strokeColor=#000000;labelBorderColor=none;labelBackgroundColor=none;horizontal=1;fontStyle=0;fontFamily=Lucida Console;gradientColor=#B266FF;gradientDirection=east;strokeWidth=2;perimeterSpacing=1;" parent="1" vertex="1">
                    <mxGeometry x="210" y="330" width="430" height="440" as="geometry"/>
                </mxCell>
                <mxCell id="3" value="" style="shape=tableRow;horizontal=0;startSize=0;swimlaneHead=0;swimlaneBody=0;strokeColor=inherit;top=0;left=0;bottom=0;right=0;collapsible=0;dropTarget=0;fillColor=none;points=[[0,0.5],[1,0.5]];portConstraint=eastwest;rounded=1;" parent="2" vertex="1">
                    <mxGeometry y="40" width="430" height="68" as="geometry"/>
                </mxCell>
                <mxCell id="4" value="id" style="shape=partialRectangle;html=1;whiteSpace=wrap;connectable=0;overflow=hidden;top=0;left=0;bottom=0;right=0;pointerEvents=1;shadow=1;rounded=1;fontFamily=Lucida Console;" parent="3" vertex="1">
                    <mxGeometry width="100" height="68" as="geometry">
                        <mxRectangle width="100" height="68" as="alternateBounds"/>
                    </mxGeometry>
                </mxCell>
                <mxCell id="5" value="SERIAL PK" style="shape=partialRectangle;html=1;whiteSpace=wrap;connectable=0;overflow=hidden;top=0;left=0;bottom=0;right=0;pointerEvents=1;shadow=1;rounded=1;labelBorderColor=none;fontFamily=Lucida Console;" parent="3" vertex="1">
                    <mxGeometry x="100" width="330" height="68" as="geometry">
                        <mxRectangle width="330" height="68" as="alternateBounds"/>
                    </mxGeometry>
                </mxCell>
                <mxCell id="6" value="" style="shape=tableRow;horizontal=0;startSize=0;swimlaneHead=0;swimlaneBody=0;strokeColor=inherit;top=0;left=0;bottom=0;right=0;collapsible=0;dropTarget=0;fillColor=none;points=[[0,0.5],[1,0.5]];portConstraint=eastwest;rounded=1;fontFamily=Lucida Console;" parent="2" vertex="1">
                    <mxGeometry y="108" width="430" height="64" as="geometry"/>
                </mxCell>
                <mxCell id="7" value="nome" style="shape=partialRectangle;html=1;whiteSpace=wrap;connectable=0;overflow=hidden;top=0;left=0;bottom=0;right=0;pointerEvents=1;shadow=1;rounded=1;fontFamily=Lucida Console;" parent="6" vertex="1">
                    <mxGeometry width="100" height="64" as="geometry">
                        <mxRectangle width="100" height="64" as="alternateBounds"/>
                    </mxGeometry>
                </mxCell>
                <mxCell id="8" value="VARCHAR(100)" style="shape=partialRectangle;html=1;whiteSpace=wrap;connectable=0;overflow=hidden;top=0;left=0;bottom=0;right=0;pointerEvents=1;shadow=1;rounded=1;fontFamily=Lucida Console;" parent="6" vertex="1">
                    <mxGeometry x="100" width="330" height="64" as="geometry">
                        <mxRectangle width="330" height="64" as="alternateBounds"/>
                    </mxGeometry>
                </mxCell>
                <mxCell id="9" value="" style="shape=tableRow;horizontal=0;startSize=0;swimlaneHead=0;swimlaneBody=0;strokeColor=inherit;top=0;left=0;bottom=0;right=0;collapsible=0;dropTarget=0;fillColor=none;points=[[0,0.5],[1,0.5]];portConstraint=eastwest;rounded=1;fontFamily=Lucida Console;" parent="2" vertex="1">
                    <mxGeometry y="172" width="430" height="68" as="geometry"/>
                </mxCell>
                <mxCell id="10" value="marca" style="shape=partialRectangle;html=1;whiteSpace=wrap;connectable=0;overflow=hidden;top=0;left=0;bottom=0;right=0;pointerEvents=1;shadow=1;rounded=1;fontFamily=Lucida Console;" parent="9" vertex="1">
                    <mxGeometry width="100" height="68" as="geometry">
                        <mxRectangle width="100" height="68" as="alternateBounds"/>
                    </mxGeometry>
                </mxCell>
                <mxCell id="11" value="VARCHAR(100)" style="shape=partialRectangle;html=1;whiteSpace=wrap;connectable=0;overflow=hidden;top=0;left=0;bottom=0;right=0;pointerEvents=1;shadow=1;rounded=1;fontFamily=Lucida Console;" parent="9" vertex="1">
                    <mxGeometry x="100" width="330" height="68" as="geometry">
                        <mxRectangle width="330" height="68" as="alternateBounds"/>
                    </mxGeometry>
                </mxCell>
                <mxCell id="12" value="" style="shape=tableRow;horizontal=0;startSize=0;swimlaneHead=0;swimlaneBody=0;strokeColor=inherit;top=0;left=0;bottom=0;right=0;collapsible=0;dropTarget=0;fillColor=none;points=[[0,0.5],[1,0.5]];portConstraint=eastwest;rounded=1;fontFamily=Lucida Console;" parent="2" vertex="1">
                    <mxGeometry y="240" width="430" height="68" as="geometry"/>
                </mxCell>
                <mxCell id="13" value="preco" style="shape=partialRectangle;html=1;whiteSpace=wrap;connectable=0;overflow=hidden;top=0;left=0;bottom=0;right=0;pointerEvents=1;shadow=1;rounded=1;fontFamily=Lucida Console;" parent="12" vertex="1">
                    <mxGeometry width="100" height="68" as="geometry">
                        <mxRectangle width="100" height="68" as="alternateBounds"/>
                    </mxGeometry>
                </mxCell>
                <mxCell id="14" value="DECIMAL(10.2)" style="shape=partialRectangle;html=1;whiteSpace=wrap;connectable=0;overflow=hidden;top=0;left=0;bottom=0;right=0;pointerEvents=1;shadow=1;rounded=1;fontFamily=Lucida Console;" parent="12" vertex="1">
                    <mxGeometry x="100" width="330" height="68" as="geometry">
                        <mxRectangle width="330" height="68" as="alternateBounds"/>
                    </mxGeometry>
                </mxCell>
                <mxCell id="15" value="" style="shape=tableRow;horizontal=0;startSize=0;swimlaneHead=0;swimlaneBody=0;strokeColor=inherit;top=0;left=0;bottom=0;right=0;collapsible=0;dropTarget=0;fillColor=none;points=[[0,0.5],[1,0.5]];portConstraint=eastwest;rounded=1;fontFamily=Lucida Console;" parent="2" vertex="1">
                    <mxGeometry y="308" width="430" height="64" as="geometry"/>
                </mxCell>
                <mxCell id="16" value="categoria" style="shape=partialRectangle;html=1;whiteSpace=wrap;connectable=0;overflow=hidden;top=0;left=0;bottom=0;right=0;pointerEvents=1;shadow=1;rounded=1;fontFamily=Lucida Console;" parent="15" vertex="1">
                    <mxGeometry width="100" height="64" as="geometry">
                        <mxRectangle width="100" height="64" as="alternateBounds"/>
                    </mxGeometry>
                </mxCell>
                <mxCell id="17" value="VARCHAR(100)" style="shape=partialRectangle;html=1;whiteSpace=wrap;connectable=0;overflow=hidden;top=0;left=0;bottom=0;right=0;pointerEvents=1;shadow=1;rounded=1;fontFamily=Lucida Console;" parent="15" vertex="1">
                    <mxGeometry x="100" width="330" height="64" as="geometry">
                        <mxRectangle width="330" height="64" as="alternateBounds"/>
                    </mxGeometry>
                </mxCell>
                <mxCell id="18" value="" style="shape=tableRow;horizontal=0;startSize=0;swimlaneHead=0;swimlaneBody=0;strokeColor=inherit;top=0;left=0;bottom=0;right=0;collapsible=0;dropTarget=0;fillColor=none;points=[[0,0.5],[1,0.5]];portConstraint=eastwest;rounded=1;swimlaneLine=0;fontFamily=Lucida Console;" parent="2" vertex="1">
                    <mxGeometry y="372" width="430" height="68" as="geometry"/>
                </mxCell>
                <mxCell id="19" value="estoque" style="shape=partialRectangle;html=1;whiteSpace=wrap;connectable=0;overflow=hidden;top=0;left=0;bottom=0;right=0;pointerEvents=1;gradientColor=none;strokeWidth=1;shadow=1;rounded=1;strokeColor=default;fontFamily=Lucida Console;" parent="18" vertex="1">
                    <mxGeometry width="100" height="68" as="geometry">
                        <mxRectangle width="100" height="68" as="alternateBounds"/>
                    </mxGeometry>
                </mxCell>
                <mxCell id="20" value="INT DEFAULT 0" style="shape=partialRectangle;html=1;whiteSpace=wrap;connectable=0;overflow=hidden;top=0;left=0;bottom=0;right=0;pointerEvents=1;shadow=1;rounded=1;fontFamily=Lucida Console;" parent="18" vertex="1">
                    <mxGeometry x="100" width="330" height="68" as="geometry">
                        <mxRectangle width="330" height="68" as="alternateBounds"/>
                    </mxGeometry>
                </mxCell>
            </root>
        </mxGraphModel>
    </diagram>
</mxfile>